<svg xmlns="http://www.w3.org/2000/svg" xmlns:xlink="http://www.w3.org/1999/xlink" width="500" zoomAndPan="magnify" viewBox="0 0 375 374.999991" height="500" preserveAspectRatio="xMidYMid meet" version="1.0"><defs><g/><clipPath id="c031a8af4c"><path d="M 34.667969 114 L 340.667969 114 L 340.667969 195.515625 L 34.667969 195.515625 Z M 34.667969 114 " clip-rule="nonzero"/></clipPath><clipPath id="285d919b84"><path d="M 173 183 L 186 183 L 186 195.515625 L 173 195.515625 Z M 173 183 " clip-rule="nonzero"/></clipPath><clipPath id="4a58e2fab7"><path d="M 189 183 L 202 183 L 202 195.515625 L 189 195.515625 Z M 189 183 " clip-rule="nonzero"/></clipPath><clipPath id="cbe1b690cb"><path d="M 30 58 L 125 58 L 125 190 L 30 190 Z M 30 58 " clip-rule="nonzero"/></clipPath><clipPath id="d46dc051a1"><path d="M 63.777344 34.652344 L 157.625 81.746094 L 91.691406 213.132812 L -2.15625 166.035156 Z M 63.777344 34.652344 " clip-rule="nonzero"/></clipPath><clipPath id="abf7deccbc"><path d="M 63.777344 34.652344 L 157.625 81.746094 L 91.691406 213.132812 L -2.15625 166.035156 Z M 63.777344 34.652344 " clip-rule="nonzero"/></clipPath><clipPath id="e4e5f81da1"><path d="M 70 65 L 116 65 L 116 221 L 70 221 Z M 70 65 " clip-rule="nonzero"/></clipPath><clipPath id="8d81e7501d"><path d="M 8.15625 108.75 L 97.328125 56.210938 L 164.714844 170.585938 L 75.542969 223.125 Z M 8.15625 108.75 " clip-rule="nonzero"/></clipPath><clipPath id="ee7e2f5a2b"><path d="M 97.144531 56.316406 L 7.972656 108.855469 L 75.359375 223.230469 L 164.53125 170.691406 Z M 97.144531 56.316406 " clip-rule="nonzero"/></clipPath><clipPath id="f61572f608"><path d="M 24.015625 195.746094 L 97.515625 195.746094 L 97.515625 239.996094 L 24.015625 239.996094 Z M 24.015625 195.746094 " clip-rule="nonzero"/></clipPath><clipPath id="a6179473e1"><path d="M 169.554688 159.761719 L 205.554688 159.761719 L 205.554688 195.761719 L 169.554688 195.761719 Z M 169.554688 159.761719 " clip-rule="nonzero"/></clipPath><clipPath id="3e79e6910e"><path d="M 174 178 L 187 178 L 187 195.75 L 174 195.75 Z M 174 178 " clip-rule="nonzero"/></clipPath><clipPath id="d402df4cce"><path d="M 174 163.5 L 187 163.5 L 187 176 L 174 176 Z M 174 163.5 " clip-rule="nonzero"/></clipPath><clipPath id="05fba39567"><path d="M 188.269531 178.289062 L 200.863281 178.289062 L 200.863281 195.644531 L 188.269531 195.644531 Z M 188.269531 178.289062 " clip-rule="nonzero"/></clipPath><clipPath id="026cf607b8"><path d="M 188.269531 163.5 L 200.863281 163.5 L 200.863281 176 L 188.269531 176 Z M 188.269531 163.5 " clip-rule="nonzero"/></clipPath></defs><rect x="-37.5" width="450" fill="#ffffff" y="-37.499999" height="449.999989" fill-opacity="1"/><rect x="-37.5" width="450" fill="#ffffff" y="-37.499999" height="449.999989" fill-opacity="1"/><path fill="#484848" d="M 88.046875 83.789062 C 75.996094 83.789062 66.226562 93.554688 66.226562 105.605469 C 66.226562 113.609375 70.53125 120.605469 76.957031 124.40625 L 76.957031 182.03125 L 99.132812 182.03125 L 99.132812 124.40625 C 105.558594 120.605469 109.863281 113.609375 109.863281 105.605469 C 109.863281 93.554688 100.09375 83.789062 88.046875 83.789062 Z M 101.394531 113.257812 L 88.046875 120.960938 L 74.691406 113.257812 L 74.691406 97.839844 L 88.046875 90.132812 L 101.394531 97.839844 L 101.394531 113.257812 " fill-opacity="1" fill-rule="nonzero"/><g clip-path="url(#c031a8af4c)"><path fill="#484848" d="M 340.246094 195.835938 L 277.941406 195.835938 L 187.503906 147.398438 L 97.054688 195.835938 L 34.746094 195.835938 L 187.503906 114.035156 L 340.246094 195.835938 " fill-opacity="1" fill-rule="nonzero"/></g><path fill="#484848" d="M 177.136719 171.765625 C 179.359375 169.558594 182.421875 168.1875 185.804688 168.1875 L 185.804688 180.445312 L 173.546875 180.445312 C 173.546875 178.347656 174.074219 176.371094 175.003906 174.640625 C 175.570312 173.582031 176.285156 172.617188 177.136719 171.765625 " fill-opacity="1" fill-rule="nonzero"/><g clip-path="url(#285d919b84)"><path fill="#484848" d="M 173.585938 183.613281 L 185.804688 183.613281 L 185.804688 195.835938 L 173.585938 195.835938 L 173.585938 183.613281 " fill-opacity="1" fill-rule="nonzero"/></g><path fill="#484848" d="M 201.460938 180.445312 L 189.199219 180.445312 L 189.199219 168.1875 C 192.582031 168.1875 195.65625 169.558594 197.867188 171.765625 C 198.71875 172.617188 199.433594 173.582031 200.003906 174.640625 C 200.929688 176.371094 201.460938 178.347656 201.460938 180.445312 " fill-opacity="1" fill-rule="nonzero"/><g clip-path="url(#4a58e2fab7)"><path fill="#484848" d="M 189.199219 183.613281 L 201.417969 183.613281 L 201.417969 195.835938 L 189.199219 195.835938 L 189.199219 183.613281 " fill-opacity="1" fill-rule="nonzero"/></g><path fill="#484848" d="M 213.480469 100.5625 L 219.550781 100.5625 C 219.554688 100.847656 219.554688 101.136719 219.558594 101.429688 C 219.554688 102.480469 219.570312 103.609375 219.554688 104.808594 C 219.539062 106.007812 219.527344 107.273438 219.511719 108.582031 C 219.480469 109.890625 219.449219 111.242188 219.421875 112.617188 C 219.371094 113.988281 219.324219 115.386719 219.277344 116.78125 C 219.234375 118.175781 219.164062 119.570312 219.09375 120.945312 C 219.03125 122.320312 218.964844 123.667969 218.871094 124.976562 C 218.710938 127.59375 218.515625 130.035156 218.320312 132.128906 C 218.128906 134.222656 217.9375 135.964844 217.785156 137.1875 C 217.636719 138.40625 217.53125 139.105469 217.53125 139.105469 C 217.441406 139.707031 217.433594 140.367188 217.53125 141 C 218.050781 144.425781 221.238281 146.777344 224.648438 146.253906 C 228.058594 145.734375 230.40625 142.53125 229.882812 139.105469 C 229.882812 139.105469 229.773438 138.40625 229.625 137.1875 C 229.476562 135.964844 229.28125 134.222656 229.09375 132.128906 C 228.898438 130.035156 228.703125 127.59375 228.542969 124.976562 C 228.453125 123.667969 228.382812 122.320312 228.316406 120.945312 C 228.246094 119.570312 228.179688 118.175781 228.132812 116.78125 C 228.085938 115.386719 228.039062 113.988281 227.992188 112.617188 C 227.960938 111.242188 227.929688 109.890625 227.902344 108.582031 C 227.886719 107.273438 227.871094 106.007812 227.859375 104.808594 C 227.839844 103.609375 227.859375 102.480469 227.855469 101.429688 C 227.855469 101.136719 227.859375 100.847656 227.863281 100.5625 L 233.949219 100.5625 C 239.355469 100.5625 243.734375 96.183594 243.734375 90.777344 L 243.734375 88.34375 L 203.679688 88.34375 L 203.679688 90.71875 C 203.679688 96.160156 208.070312 100.5625 213.480469 100.5625 " fill-opacity="1" fill-rule="nonzero"/><path fill="#484848" d="M 243.734375 60.511719 L 240.648438 60.511719 L 238.824219 67.550781 L 237.699219 60.511719 L 236.4375 60.511719 L 235.734375 64.03125 L 234.890625 60.511719 L 227.871094 60.511719 L 226.75 69.519531 L 225.765625 60.511719 L 223.707031 60.511719 L 222.394531 69.519531 L 221.695312 60.511719 L 217.207031 60.511719 L 216.359375 65.015625 L 215.378906 60.511719 L 212.570312 60.511719 L 210.042969 73.183594 L 206.953125 60.511719 L 203.679688 60.511719 L 203.679688 85.855469 L 243.734375 85.855469 L 243.734375 60.511719 " fill-opacity="1" fill-rule="nonzero"/><path fill="#484848" d="M 188.3125 85.511719 C 187.742188 84.941406 162.8125 60.308594 162.269531 78.449219 L 162.269531 152.613281 L 145.523438 152.613281 L 145.523438 80.34375 C 145.523438 78.828125 145.070312 77.339844 144.210938 76.089844 C 142.246094 73.238281 138.058594 69.417969 131.460938 74.417969 C 130.320312 75.28125 129.027344 75.789062 127.683594 75.867188 L 122.292969 76.191406 C 121.449219 76.246094 120.6875 75.621094 120.390625 74.648438 C 119.464844 71.539062 117.882812 64.492188 120.335938 58.222656 C 120.65625 57.402344 121.335938 56.878906 122.089844 56.890625 C 125.746094 56.925781 137.191406 56.890625 142.390625 54.933594 C 148.628906 52.585938 177.003906 52.074219 188.3125 85.511719 " fill-opacity="1" fill-rule="nonzero"/><path fill="#484848" d="M 328.144531 76.378906 L 328.144531 84.898438 C 328.144531 88.675781 325.082031 91.738281 321.304688 91.738281 L 268.902344 91.738281 C 265.128906 91.738281 262.066406 88.675781 262.066406 84.898438 L 262.066406 76.402344 C 262.066406 72.625 265.128906 69.5625 268.902344 69.5625 L 321.308594 69.5625 C 325.085938 69.5625 328.144531 72.613281 328.144531 76.378906 " fill-opacity="1" fill-rule="nonzero"/><path fill="#484848" d="M 297.367188 143.785156 L 292.84375 143.785156 L 292.84375 128.832031 C 292.84375 127.839844 292.347656 126.910156 291.519531 126.359375 L 256.15625 102.691406 C 253.90625 101.183594 252.5625 98.671875 252.5625 95.964844 L 252.5625 84.917969 C 252.5625 81.308594 255.484375 78.386719 259.089844 78.386719 L 278.8125 78.386719 L 278.8125 82.914062 L 259.246094 82.914062 C 258.183594 82.914062 257.3125 83.78125 257.3125 84.847656 L 257.3125 95.882812 C 257.3125 97.058594 257.890625 98.144531 258.863281 98.800781 L 294.027344 122.507812 C 296.117188 123.917969 297.367188 126.273438 297.367188 128.804688 L 297.367188 143.785156 " fill-opacity="1" fill-rule="nonzero"/><path fill="#484848" d="M 295.222656 190.9375 C 291.40625 190.9375 288.316406 187.847656 288.316406 184.039062 L 288.316406 139.554688 C 288.316406 135.742188 291.40625 132.652344 295.222656 132.652344 C 299.03125 132.652344 302.121094 135.742188 302.121094 139.554688 L 302.121094 184.039062 C 302.121094 187.847656 299.03125 190.9375 295.222656 190.9375 " fill-opacity="1" fill-rule="nonzero"/><g clip-path="url(#cbe1b690cb)"><g clip-path="url(#d46dc051a1)"><g clip-path="url(#abf7deccbc)"><path fill="#ffffff" d="M 110.679688 58.253906 L 30.78125 100.402344 L 44.742188 189.652344 L 124.640625 147.503906 Z M 110.679688 58.253906 " fill-opacity="1" fill-rule="nonzero"/></g></g></g><g clip-path="url(#e4e5f81da1)"><g clip-path="url(#8d81e7501d)"><g clip-path="url(#ee7e2f5a2b)"><path fill="#484848" d="M 77.875 67.773438 C 79.105469 67.226562 81 66.746094 82.960938 66.488281 C 83.296875 66.449219 83.648438 66.367188 83.75 66.304688 C 83.863281 66.257812 84.273438 66.175781 84.695312 66.148438 C 85.117188 66.117188 85.570312 66.007812 85.714844 65.945312 C 85.847656 65.867188 86.03125 65.839844 86.140625 65.894531 C 86.230469 65.941406 86.558594 65.925781 86.871094 65.84375 C 88.960938 65.328125 94.171875 64.929688 96.164062 65.132812 C 99.503906 65.480469 101.652344 66.386719 103.695312 68.296875 C 104.816406 69.351562 106.238281 71.90625 106.726562 73.710938 C 107.167969 75.308594 107.453125 76.675781 107.496094 77.1875 C 107.511719 77.378906 107.558594 77.867188 107.601562 78.28125 C 107.796875 79.863281 107.835938 80.777344 107.757812 82.339844 C 107.703125 83.226562 107.757812 84.132812 107.871094 84.328125 C 107.996094 84.535156 108.621094 85.023438 109.296875 85.421875 C 109.957031 85.832031 110.714844 86.441406 111 86.792969 C 111.289062 87.140625 111.601562 87.4375 111.714844 87.429688 C 112.023438 87.445312 114.355469 91.539062 114.503906 92.367188 C 114.578125 92.761719 114.761719 93.273438 114.894531 93.535156 C 115.113281 93.90625 115.289062 94.816406 115.671875 97.363281 C 115.75 97.898438 115.789062 100.128906 115.730469 101.21875 C 115.625 102.9375 114.800781 106.277344 114.109375 107.742188 C 113.332031 109.335938 112.109375 111.253906 111.082031 112.457031 C 110.425781 113.203125 110 113.53125 108.28125 114.542969 C 106.660156 115.480469 106.160156 115.714844 105.78125 115.679688 C 105.507812 115.660156 105.179688 115.714844 105.046875 115.792969 C 104.898438 115.878906 104.070312 115.929688 103.183594 115.914062 C 102.289062 115.882812 101.546875 115.941406 101.527344 116.011719 C 101.453125 116.292969 101.96875 116.964844 102.296875 117.011719 C 102.476562 117.046875 102.703125 117.195312 102.789062 117.339844 C 102.921875 117.5625 102.808594 117.710938 101.964844 118.246094 C 101.089844 118.820312 101.019531 118.902344 101.148438 119.226562 C 101.230469 119.4375 101.550781 119.707031 101.851562 119.847656 C 102.847656 120.28125 102.816406 120.5 101.734375 121.136719 C 100.832031 121.667969 100.78125 121.71875 100.910156 122.140625 C 100.984375 122.433594 101.242188 122.703125 101.691406 122.957031 C 102.714844 123.546875 102.746094 123.769531 101.917969 124.121094 C 100.445312 124.707031 100.398438 125.234375 101.742188 126.058594 C 102.265625 126.367188 102.683594 126.640625 102.699219 126.667969 C 102.71875 126.699219 102.292969 126.992188 101.726562 127.320312 C 100.320312 128.152344 100.277344 128.316406 101.246094 128.941406 C 101.667969 129.214844 102.054688 129.503906 102.125 129.582031 C 102.167969 129.65625 101.828125 129.996094 101.367188 130.328125 C 100.566406 130.898438 100.53125 130.941406 100.71875 131.367188 C 100.820312 131.605469 101.210938 131.996094 101.589844 132.230469 C 101.945312 132.460938 102.230469 132.710938 102.222656 132.796875 C 102.1875 132.875 101.738281 133.160156 101.1875 133.445312 C 100.339844 133.90625 100.160156 134.070312 99.746094 134.792969 C 99.359375 135.519531 99.148438 135.703125 98.183594 136.273438 C 97.347656 136.746094 96.875 136.925781 96.273438 136.957031 C 95.238281 137.027344 94.101562 136.722656 93.6875 136.289062 C 93.511719 136.09375 93.191406 135.785156 92.96875 135.613281 C 92.75 135.445312 92.390625 134.898438 92.171875 134.429688 C 91.945312 133.941406 91.644531 133.464844 91.503906 133.363281 C 91.351562 133.273438 91 133.046875 90.707031 132.859375 C 89.871094 132.351562 89.914062 132.085938 90.894531 131.652344 C 91.492188 131.378906 91.695312 131.21875 91.714844 131.007812 C 91.726562 130.523438 91.355469 130.0625 90.757812 129.796875 C 89.863281 129.425781 89.925781 129.089844 91.050781 128.425781 C 92.21875 127.738281 92.226562 127.515625 91.074219 126.777344 C 90.148438 126.1875 90.113281 125.886719 90.949219 125.613281 C 91.210938 125.519531 91.582031 125.300781 91.796875 125.09375 C 92.242188 124.695312 92.105469 124.292969 91.441406 123.949219 C 91.234375 123.832031 90.910156 123.582031 90.710938 123.382812 L 90.386719 123.035156 L 91.273438 122.511719 C 92.074219 122.039062 92.175781 121.941406 92.117188 121.535156 C 92.082031 121.136719 91.941406 121 91.273438 120.617188 C 90.839844 120.351562 90.480469 120.046875 90.480469 119.945312 C 90.488281 119.820312 90.78125 119.609375 91.148438 119.453125 C 92.539062 118.871094 92.585938 118.207031 91.308594 117.523438 C 90.515625 117.09375 90.46875 116.742188 91.191406 116.476562 C 91.785156 116.265625 92.304688 115.796875 92.191406 115.605469 C 92.035156 115.339844 89.746094 115.210938 89.445312 115.449219 C 89.273438 115.589844 89.109375 116.164062 89.050781 116.941406 C 88.996094 117.628906 88.976562 118.238281 89.011719 118.296875 C 89.023438 118.351562 89.023438 118.890625 88.992188 119.484375 C 88.972656 120.097656 88.988281 120.664062 89.050781 120.769531 C 89.113281 120.871094 89.105469 120.996094 89.046875 121.03125 C 88.972656 121.074219 88.882812 122.003906 88.824219 123.09375 C 88.777344 124.199219 88.722656 125.492188 88.683594 125.972656 C 88.664062 126.441406 88.644531 126.851562 88.671875 126.894531 C 88.6875 126.925781 88.636719 128.394531 88.523438 130.132812 C 88.421875 131.890625 88.359375 133.441406 88.371094 133.597656 C 88.40625 134.132812 88.367188 135.351562 88.21875 138.011719 C 88.136719 139.460938 88.046875 141.207031 88.023438 141.878906 C 88 142.550781 87.9375 143.726562 87.898438 144.507812 C 87.734375 146.835938 87.699219 148.234375 87.75 148.722656 C 87.78125 148.984375 87.773438 149.507812 87.722656 149.933594 C 87.667969 150.347656 87.636719 150.765625 87.644531 150.878906 C 87.640625 150.980469 87.605469 152 87.550781 153.128906 C 87.394531 156.453125 87.378906 157 87.414062 157.5 C 87.429688 157.765625 87.394531 158.546875 87.3125 159.253906 C 87.226562 159.960938 87.144531 161.347656 87.136719 162.347656 C 87.101562 164.144531 86.855469 169.65625 86.664062 173.160156 C 86.558594 175.277344 86.535156 176.046875 86.472656 177.941406 C 86.453125 178.6875 86.390625 180.140625 86.339844 181.171875 C 86.277344 182.183594 86.21875 183.4375 86.207031 183.921875 C 86.191406 184.40625 86.105469 186.355469 86.027344 188.257812 C 85.933594 190.164062 85.859375 192.304688 85.847656 193.03125 C 85.835938 193.753906 85.78125 194.984375 85.71875 195.757812 C 85.65625 196.53125 85.59375 197.609375 85.585938 198.171875 C 85.53125 200.554688 85.441406 202.664062 85.3125 204.851562 C 85.230469 206.136719 85.175781 207.566406 85.183594 208.019531 C 85.207031 210.222656 84.875 213.6875 84.539062 214.78125 C 84.328125 215.46875 83.746094 216.648438 83.230469 217.429688 C 82.332031 218.816406 82.28125 218.867188 80.828125 219.722656 C 79.480469 220.515625 79.246094 220.59375 78.226562 220.65625 C 76.847656 220.753906 74.96875 220.203125 73.835938 219.394531 C 73.105469 218.867188 72.878906 218.582031 71.925781 216.96875 C 71.140625 215.636719 70.824219 214.964844 70.757812 214.445312 C 70.578125 213.195312 70.519531 211.671875 70.5625 210.054688 C 70.589844 209.179688 70.613281 208.308594 70.609375 208.132812 C 70.617188 207.945312 70.683594 206.429688 70.769531 204.785156 C 70.859375 203.136719 70.902344 201.554688 70.882812 201.285156 C 70.855469 201.003906 70.886719 200.746094 70.945312 200.710938 C 71.003906 200.675781 71.027344 200.484375 70.96875 200.277344 C 70.933594 200.082031 70.960938 199.148438 71.054688 198.191406 C 71.136719 197.246094 71.191406 196.257812 71.175781 195.988281 C 71.148438 195.503906 71.183594 194.585938 71.289062 192.628906 C 71.3125 192.058594 71.289062 191.511719 71.226562 191.410156 C 71.175781 191.320312 71.183594 191.195312 71.257812 191.152344 C 71.316406 191.117188 71.390625 190.734375 71.414062 190.300781 C 71.445312 189.882812 71.480469 189.027344 71.515625 188.410156 C 71.5625 187.78125 71.546875 187.210938 71.511719 187.152344 C 71.476562 187.09375 71.496094 186.546875 71.539062 185.941406 C 71.589844 185.351562 71.640625 184.625 71.664062 184.332031 C 71.714844 183.503906 71.882812 179.015625 71.921875 177.179688 C 71.929688 176.992188 71.984375 176.003906 72.050781 174.964844 C 72.132812 173.921875 72.164062 173.023438 72.140625 172.980469 C 72.113281 172.9375 72.101562 172.644531 72.132812 172.324219 C 72.261719 170.515625 72.507812 165.382812 72.519531 164.179688 C 72.519531 163.402344 72.566406 162.394531 72.597656 161.941406 C 72.714844 160.753906 72.859375 156.9375 72.808594 156.847656 C 72.773438 156.789062 72.785156 156.304688 72.808594 155.769531 C 72.851562 155.226562 72.878906 154.632812 72.890625 154.445312 C 72.882812 154.269531 72.957031 153.511719 73.019531 152.773438 C 73.085938 152.039062 73.128906 151.132812 73.128906 150.753906 C 73.117188 150.402344 73.191406 148.464844 73.304688 146.484375 C 73.390625 144.496094 73.453125 142.742188 73.445312 142.589844 C 73.417969 142.308594 73.484375 140.832031 73.601562 138.867188 C 73.738281 136.890625 73.828125 134.207031 73.777344 134.117188 C 73.75 134.070312 73.773438 133.539062 73.816406 132.933594 C 74.011719 130.625 74.148438 127.671875 74.101562 126.84375 C 74.074219 126.359375 74.101562 125.765625 74.140625 125.523438 C 74.183594 125.257812 74.25 124.324219 74.273438 123.449219 C 74.289062 122.5625 74.339844 121.597656 74.367188 121.339844 C 74.402344 121.0625 74.425781 120.527344 74.433594 120.164062 C 74.4375 119.804688 74.441406 119.0625 74.445312 118.523438 C 74.453125 118 74.527344 116.9375 74.582031 116.1875 C 74.6875 115.007812 74.734375 113.90625 74.734375 112.546875 C 74.71875 112.355469 74.78125 111.242188 74.839844 110.054688 C 74.894531 108.863281 74.960938 107.386719 74.996094 106.769531 C 75.066406 105.328125 74.921875 103.523438 74.527344 100.859375 C 74.460938 100.300781 74.355469 99.585938 74.320312 99.289062 C 74.105469 97.5 73.820312 95.59375 73.722656 95.429688 C 73.664062 95.328125 73.59375 95.007812 73.574219 94.703125 C 73.558594 94.410156 73.464844 93.707031 73.382812 93.15625 C 73.296875 92.609375 73.179688 91.902344 73.160156 91.59375 C 73.113281 91.28125 73.019531 90.578125 72.933594 90.03125 C 72.851562 89.480469 72.746094 88.765625 72.710938 88.464844 C 72.601562 87.296875 72.410156 86.089844 72.304688 85.914062 C 72.191406 85.722656 72.164062 85.4375 72.058594 84.003906 C 72.023438 83.644531 71.945312 83.273438 71.875 83.152344 C 71.804688 83.035156 71.730469 82.601562 71.703125 82.21875 C 71.675781 81.835938 71.636719 81.160156 71.609375 80.738281 C 71.566406 79.785156 71.925781 79.3125 72.933594 79.058594 C 73.3125 78.957031 73.785156 78.878906 73.945312 78.882812 C 74.109375 78.886719 74.445312 78.847656 74.703125 78.816406 C 74.957031 78.765625 75.40625 78.71875 75.707031 78.722656 C 76.015625 78.703125 76.417969 78.605469 76.609375 78.492188 C 76.800781 78.378906 77.042969 78.316406 77.140625 78.378906 C 77.226562 78.425781 77.507812 78.359375 77.746094 78.21875 C 77.96875 78.089844 78.242188 78.046875 78.355469 78.140625 C 78.46875 78.230469 78.859375 78.183594 79.21875 78.050781 C 79.582031 77.917969 80 77.847656 80.175781 77.90625 C 80.332031 77.972656 80.652344 77.902344 80.875 77.773438 C 81.09375 77.640625 81.421875 77.589844 81.621094 77.652344 C 81.800781 77.726562 82.042969 77.660156 82.210938 77.503906 C 82.382812 77.324219 82.589844 77.300781 82.820312 77.421875 C 83.019531 77.523438 83.292969 77.546875 83.441406 77.457031 C 83.765625 77.265625 85.671875 76.980469 86.140625 77.0625 C 86.40625 77.105469 86.507812 77.046875 86.558594 76.859375 C 86.667969 76.433594 86.820312 76.421875 87.175781 76.792969 C 87.410156 77.054688 87.714844 77.132812 88.222656 77.074219 C 88.621094 77.039062 89 76.976562 89.074219 76.929688 C 89.164062 76.878906 89.394531 76.863281 89.601562 76.878906 C 89.957031 76.910156 89.984375 76.953125 90.082031 77.832031 C 90.152344 78.351562 90.21875 79.007812 90.230469 79.300781 C 90.253906 79.609375 90.339844 79.957031 90.425781 80.105469 C 90.503906 80.238281 90.546875 80.550781 90.527344 80.785156 C 90.496094 81 90.636719 81.476562 90.835938 81.816406 C 91.167969 82.378906 91.253906 82.429688 91.90625 82.382812 C 92.488281 82.320312 92.703125 82.414062 93.007812 82.792969 C 93.292969 83.144531 93.515625 83.25 93.914062 83.214844 C 94.21875 83.195312 94.511719 83.082031 94.597656 82.992188 C 94.691406 82.875 94.71875 82.242188 94.664062 81.578125 C 94.625 80.902344 94.585938 80.226562 94.589844 80.0625 C 94.621094 78.390625 94.449219 76.097656 94.273438 75.800781 C 94.117188 75.535156 93.910156 75.457031 93.546875 75.515625 C 92.675781 75.628906 91.964844 75.605469 91.878906 75.460938 C 91.832031 75.386719 91.664062 75.40625 91.488281 75.507812 C 91.324219 75.605469 90.871094 75.613281 90.496094 75.515625 C 90.117188 75.417969 89.574219 75.339844 89.265625 75.363281 C 87.6875 75.457031 86.75 75.425781 86.410156 75.289062 C 86.21875 75.203125 85.949219 75.183594 85.832031 75.25 C 85.710938 75.320312 85.234375 75.324219 84.785156 75.269531 C 84.324219 75.203125 83.902344 75.191406 83.8125 75.246094 C 83.738281 75.289062 83.242188 75.261719 82.722656 75.1875 C 82.199219 75.117188 81.660156 75.113281 81.542969 75.183594 C 81.425781 75.253906 81.152344 75.234375 80.976562 75.140625 C 80.777344 75.039062 80.195312 74.960938 79.667969 74.953125 C 79.152344 74.957031 78.582031 74.933594 78.417969 74.890625 C 78.253906 74.847656 78.023438 74.863281 77.917969 74.925781 C 77.816406 74.988281 77.335938 74.949219 76.863281 74.828125 C 76.394531 74.707031 75.984375 74.691406 75.964844 74.761719 C 75.949219 74.832031 75.523438 74.820312 75.039062 74.707031 C 74.5625 74.609375 73.957031 74.566406 73.707031 74.617188 C 73.472656 74.65625 73.210938 74.585938 73.140625 74.46875 C 72.96875 74.171875 73.320312 72.910156 73.914062 71.71875 C 74.898438 69.765625 74.992188 69.648438 76.578125 68.453125 C 76.777344 68.316406 77.359375 68.015625 77.875 67.773438 Z M 75.269531 211.269531 C 74.507812 211.9375 74 213.515625 74.273438 214.351562 C 74.34375 214.605469 74.371094 214.890625 74.324219 214.980469 C 74.183594 215.28125 75.214844 216.828125 75.816406 217.210938 C 77.058594 217.996094 78.101562 218.039062 79.269531 217.347656 C 80.003906 216.898438 80.179688 216.695312 80.613281 215.800781 C 81.519531 213.851562 81.152344 211.875 79.652344 210.78125 C 78.539062 209.980469 76.816406 209.898438 75.988281 210.625 C 75.820312 210.785156 75.511719 211.066406 75.269531 211.269531 Z M 75.269531 211.269531 " fill-opacity="1" fill-rule="nonzero"/></g></g></g><g clip-path="url(#f61572f608)"><path fill="#ffffff" d="M 24.015625 239.921875 L 24.015625 195.933594 L 97.601562 195.933594 L 97.601562 239.921875 Z M 24.015625 239.921875 " fill-opacity="1" fill-rule="nonzero"/></g><g clip-path="url(#a6179473e1)"><path fill="#ffffff" d="M 169.554688 159.761719 L 205.441406 159.761719 L 205.441406 195.644531 L 169.554688 195.644531 Z M 169.554688 159.761719 " fill-opacity="1" fill-rule="nonzero"/></g><g clip-path="url(#3e79e6910e)"><path fill="#fcdf69" d="M 186.101562 178.484375 L 174.257812 178.484375 C 174.183594 178.484375 174.125 178.550781 174.125 178.632812 L 174.125 195.5 C 174.125 195.582031 174.183594 195.644531 174.257812 195.644531 L 186.101562 195.644531 C 186.171875 195.644531 186.230469 195.582031 186.230469 195.5 L 186.230469 178.632812 C 186.230469 178.550781 186.171875 178.484375 186.101562 178.484375 " fill-opacity="1" fill-rule="nonzero"/></g><g clip-path="url(#d402df4cce)"><path fill="#fcdf69" d="M 186.101562 163.5 C 178.320312 163.5 174.125 169.542969 174.125 175.90625 L 186.101562 175.90625 C 186.171875 175.90625 186.230469 175.839844 186.230469 175.757812 L 186.230469 163.648438 C 186.230469 163.566406 186.171875 163.5 186.101562 163.5 " fill-opacity="1" fill-rule="nonzero"/></g><g clip-path="url(#05fba39567)"><path fill="#fcdf69" d="M 200.734375 178.484375 L 188.886719 178.484375 C 188.8125 178.484375 188.757812 178.550781 188.757812 178.632812 L 188.757812 195.5 C 188.757812 195.582031 188.8125 195.644531 188.886719 195.644531 L 200.734375 195.644531 C 200.804688 195.644531 200.863281 195.582031 200.863281 195.5 L 200.863281 178.632812 C 200.863281 178.550781 200.804688 178.484375 200.734375 178.484375 " fill-opacity="1" fill-rule="nonzero"/></g><g clip-path="url(#026cf607b8)"><path fill="#fcdf69" d="M 188.886719 175.90625 L 200.863281 175.90625 C 200.863281 169.605469 196.734375 163.5 188.886719 163.5 C 188.8125 163.5 188.757812 163.566406 188.757812 163.648438 L 188.757812 175.757812 C 188.757812 175.839844 188.8125 175.90625 188.886719 175.90625 " fill-opacity="1" fill-rule="nonzero"/></g><g fill="#457067" fill-opacity="1"><g transform="translate(36.031448, 249.5833)"><g><path d="M 17.125 0 L 11.328125 -10.78125 L 10.453125 -10.78125 L 10.453125 0 L 2.328125 0 L 2.328125 -29.234375 L 15.140625 -29.234375 C 17.484375 -29.234375 19.46875 -28.820312 21.09375 -28 C 22.726562 -27.1875 23.960938 -26.066406 24.796875 -24.640625 C 25.628906 -23.222656 26.046875 -21.628906 26.046875 -19.859375 C 26.046875 -17.867188 25.5 -16.117188 24.40625 -14.609375 C 23.3125 -13.109375 21.710938 -12.039062 19.609375 -11.40625 L 26.203125 0 Z M 10.453125 -16.34375 L 14.46875 -16.34375 C 15.570312 -16.34375 16.398438 -16.601562 16.953125 -17.125 C 17.515625 -17.65625 17.796875 -18.414062 17.796875 -19.40625 C 17.796875 -20.34375 17.507812 -21.082031 16.9375 -21.625 C 16.375 -22.164062 15.550781 -22.4375 14.46875 -22.4375 L 10.453125 -22.4375 Z M 10.453125 -16.34375 "/></g></g></g><g fill="#457067" fill-opacity="1"><g transform="translate(63.442051, 249.5833)"><g><path d="M 36.453125 -29.234375 L 36.453125 0 L 28.328125 0 L 28.328125 -16.125 L 22.8125 0 L 16 0 L 10.453125 -16.25 L 10.453125 0 L 2.328125 0 L 2.328125 -29.234375 L 12.15625 -29.234375 L 19.484375 -10.25 L 26.671875 -29.234375 Z M 36.453125 -29.234375 "/></g></g></g><g fill="#457067" fill-opacity="1"><g transform="translate(102.214991, 249.5833)"><g><path d="M 13.359375 0.296875 C 9.953125 0.296875 7.15625 -0.507812 4.96875 -2.125 C 2.789062 -3.75 1.617188 -6.066406 1.453125 -9.078125 L 10.125 -9.078125 C 10.207031 -8.054688 10.507812 -7.3125 11.03125 -6.84375 C 11.550781 -6.375 12.226562 -6.140625 13.0625 -6.140625 C 13.8125 -6.140625 14.425781 -6.320312 14.90625 -6.6875 C 15.394531 -7.0625 15.640625 -7.582031 15.640625 -8.25 C 15.640625 -9.101562 15.238281 -9.765625 14.4375 -10.234375 C 13.632812 -10.710938 12.332031 -11.238281 10.53125 -11.8125 C 8.625 -12.445312 7.082031 -13.0625 5.90625 -13.65625 C 4.726562 -14.257812 3.703125 -15.132812 2.828125 -16.28125 C 1.960938 -17.425781 1.53125 -18.925781 1.53125 -20.78125 C 1.53125 -22.65625 2 -24.265625 2.9375 -25.609375 C 3.882812 -26.953125 5.1875 -27.96875 6.84375 -28.65625 C 8.5 -29.34375 10.378906 -29.6875 12.484375 -29.6875 C 15.878906 -29.6875 18.59375 -28.890625 20.625 -27.296875 C 22.65625 -25.710938 23.742188 -23.484375 23.890625 -20.609375 L 15.046875 -20.609375 C 15.023438 -21.492188 14.757812 -22.15625 14.25 -22.59375 C 13.738281 -23.039062 13.082031 -23.265625 12.28125 -23.265625 C 11.664062 -23.265625 11.164062 -23.082031 10.78125 -22.71875 C 10.394531 -22.363281 10.203125 -21.851562 10.203125 -21.1875 C 10.203125 -20.632812 10.414062 -20.15625 10.84375 -19.75 C 11.269531 -19.351562 11.800781 -19.007812 12.4375 -18.71875 C 13.070312 -18.425781 14.015625 -18.0625 15.265625 -17.625 C 17.109375 -16.988281 18.628906 -16.359375 19.828125 -15.734375 C 21.035156 -15.109375 22.078125 -14.238281 22.953125 -13.125 C 23.828125 -12.007812 24.265625 -10.59375 24.265625 -8.875 C 24.265625 -7.132812 23.828125 -5.570312 22.953125 -4.1875 C 22.078125 -2.800781 20.816406 -1.707031 19.171875 -0.90625 C 17.535156 -0.101562 15.597656 0.296875 13.359375 0.296875 Z M 13.359375 0.296875 "/></g></g></g><g fill="#457067" fill-opacity="1"><g transform="translate(127.925398, 249.5833)"><g/></g></g><g fill="#457067" fill-opacity="1"><g transform="translate(135.845861, 249.5833)"><g><path d="M 25.421875 -19.484375 C 25.421875 -17.722656 25.007812 -16.113281 24.1875 -14.65625 C 23.375 -13.207031 22.144531 -12.046875 20.5 -11.171875 C 18.851562 -10.304688 16.84375 -9.875 14.46875 -9.875 L 10.453125 -9.875 L 10.453125 0 L 2.328125 0 L 2.328125 -29.234375 L 14.46875 -29.234375 C 16.820312 -29.234375 18.820312 -28.816406 20.46875 -27.984375 C 22.113281 -27.160156 23.347656 -26.015625 24.171875 -24.546875 C 25.003906 -23.085938 25.421875 -21.398438 25.421875 -19.484375 Z M 13.6875 -16.34375 C 15.976562 -16.34375 17.125 -17.390625 17.125 -19.484375 C 17.125 -21.617188 15.976562 -22.6875 13.6875 -22.6875 L 10.453125 -22.6875 L 10.453125 -16.34375 Z M 13.6875 -16.34375 "/></g></g></g><g fill="#457067" fill-opacity="1"><g transform="translate(162.219761, 249.5833)"><g><path d="M 20.8125 -4.765625 L 10.453125 -4.765625 L 8.875 0 L 0.328125 0 L 10.984375 -29.234375 L 20.359375 -29.234375 L 30.984375 0 L 22.390625 0 Z M 18.78125 -10.984375 L 15.640625 -20.4375 L 12.53125 -10.984375 Z M 18.78125 -10.984375 "/></g></g></g><g fill="#457067" fill-opacity="1"><g transform="translate(193.528394, 249.5833)"><g><path d="M 10.453125 -29.234375 L 10.453125 0 L 2.328125 0 L 2.328125 -29.234375 Z M 10.453125 -29.234375 "/></g></g></g><g fill="#457067" fill-opacity="1"><g transform="translate(206.300656, 249.5833)"><g><path d="M 29.40625 0 L 21.28125 0 L 10.453125 -16.34375 L 10.453125 0 L 2.328125 0 L 2.328125 -29.234375 L 10.453125 -29.234375 L 21.28125 -12.6875 L 21.28125 -29.234375 L 29.40625 -29.234375 Z M 29.40625 0 "/></g></g></g><g fill="#457067" fill-opacity="1"><g transform="translate(238.023977, 249.5833)"><g><path d="M 24.34375 -29.234375 L 24.34375 -22.765625 L 16.546875 -22.765625 L 16.546875 0 L 8.421875 0 L 8.421875 -22.765625 L 0.703125 -22.765625 L 0.703125 -29.234375 Z M 24.34375 -29.234375 "/></g></g></g><g fill="#457067" fill-opacity="1"><g transform="translate(263.070889, 249.5833)"><g><path d="M 10.453125 -29.234375 L 10.453125 0 L 2.328125 0 L 2.328125 -29.234375 Z M 10.453125 -29.234375 "/></g></g></g><g fill="#457067" fill-opacity="1"><g transform="translate(275.843137, 249.5833)"><g><path d="M 29.40625 0 L 21.28125 0 L 10.453125 -16.34375 L 10.453125 0 L 2.328125 0 L 2.328125 -29.234375 L 10.453125 -29.234375 L 21.28125 -12.6875 L 21.28125 -29.234375 L 29.40625 -29.234375 Z M 29.40625 0 "/></g></g></g><g fill="#457067" fill-opacity="1"><g transform="translate(307.566459, 249.5833)"><g><path d="M 20.984375 -19.609375 C 20.515625 -20.390625 19.867188 -20.984375 19.046875 -21.390625 C 18.234375 -21.804688 17.273438 -22.015625 16.171875 -22.015625 C 14.128906 -22.015625 12.519531 -21.347656 11.34375 -20.015625 C 10.164062 -18.691406 9.578125 -16.914062 9.578125 -14.6875 C 9.578125 -12.164062 10.207031 -10.25 11.46875 -8.9375 C 12.726562 -7.625 14.554688 -6.96875 16.953125 -6.96875 C 19.804688 -6.96875 21.84375 -8.253906 23.0625 -10.828125 L 14.890625 -10.828125 L 14.890625 -16.671875 L 30.0625 -16.671875 L 30.0625 -8.796875 C 29.425781 -7.242188 28.492188 -5.789062 27.265625 -4.4375 C 26.035156 -3.082031 24.476562 -1.96875 22.59375 -1.09375 C 20.71875 -0.226562 18.578125 0.203125 16.171875 0.203125 C 13.242188 0.203125 10.648438 -0.421875 8.390625 -1.671875 C 6.140625 -2.929688 4.398438 -4.6875 3.171875 -6.9375 C 1.941406 -9.195312 1.328125 -11.78125 1.328125 -14.6875 C 1.328125 -17.5625 1.941406 -20.125 3.171875 -22.375 C 4.398438 -24.625 6.132812 -26.378906 8.375 -27.640625 C 10.613281 -28.898438 13.195312 -29.53125 16.125 -29.53125 C 19.800781 -29.53125 22.84375 -28.644531 25.25 -26.875 C 27.65625 -25.101562 29.148438 -22.679688 29.734375 -19.609375 Z M 20.984375 -19.609375 "/></g></g></g><g fill="#484848" fill-opacity="1"><g transform="translate(58.938532, 275.643399)"><g><path d="M 8.609375 -2.546875 L 3.109375 -2.546875 L 2.03125 0 L -0.078125 0 L 4.875 -11 L 6.890625 -11 L 11.859375 0 L 9.71875 0 Z M 7.9375 -4.15625 L 5.859375 -8.953125 L 3.796875 -4.15625 Z M 7.9375 -4.15625 "/></g></g></g><g fill="#484848" fill-opacity="1"><g transform="translate(75.661283, 275.643399)"><g><path d="M 11.25 -11 L 11.25 0 L 9.578125 0 L 3.5 -7.453125 L 3.5 0 L 1.484375 0 L 1.484375 -11 L 3.15625 -11 L 9.234375 -3.546875 L 9.234375 -11 Z M 11.25 -11 "/></g></g></g><g fill="#484848" fill-opacity="1"><g transform="translate(93.34251, 275.643399)"><g><path d="M 1.484375 -11 L 6.28125 -11 C 7.457031 -11 8.5 -10.769531 9.40625 -10.3125 C 10.320312 -9.863281 11.03125 -9.222656 11.53125 -8.390625 C 12.039062 -7.554688 12.296875 -6.59375 12.296875 -5.5 C 12.296875 -4.40625 12.039062 -3.441406 11.53125 -2.609375 C 11.03125 -1.785156 10.320312 -1.144531 9.40625 -0.6875 C 8.5 -0.226562 7.457031 0 6.28125 0 L 1.484375 0 Z M 6.1875 -1.734375 C 7 -1.734375 7.710938 -1.882812 8.328125 -2.1875 C 8.941406 -2.5 9.410156 -2.941406 9.734375 -3.515625 C 10.066406 -4.085938 10.234375 -4.75 10.234375 -5.5 C 10.234375 -6.257812 10.066406 -6.921875 9.734375 -7.484375 C 9.410156 -8.054688 8.941406 -8.5 8.328125 -8.8125 C 7.710938 -9.125 7 -9.28125 6.1875 -9.28125 L 3.515625 -9.28125 L 3.515625 -1.734375 Z M 6.1875 -1.734375 "/></g></g></g><g fill="#484848" fill-opacity="1"><g transform="translate(111.275145, 275.643399)"><g/></g></g><g fill="#484848" fill-opacity="1"><g transform="translate(120.565787, 275.643399)"><g><path d="M 11.25 -11 L 11.25 0 L 9.21875 0 L 9.21875 -4.71875 L 3.515625 -4.71875 L 3.515625 0 L 1.484375 0 L 1.484375 -11 L 3.515625 -11 L 3.515625 -6.453125 L 9.21875 -6.453125 L 9.21875 -11 Z M 11.25 -11 "/></g></g></g><g fill="#484848" fill-opacity="1"><g transform="translate(138.247016, 275.643399)"><g><path d="M 6.625 0.15625 C 5.5 0.15625 4.484375 -0.0820312 3.578125 -0.5625 C 2.679688 -1.050781 1.972656 -1.726562 1.453125 -2.59375 C 0.941406 -3.457031 0.6875 -4.425781 0.6875 -5.5 C 0.6875 -6.570312 0.941406 -7.539062 1.453125 -8.40625 C 1.972656 -9.269531 2.679688 -9.941406 3.578125 -10.421875 C 4.484375 -10.910156 5.5 -11.15625 6.625 -11.15625 C 7.738281 -11.15625 8.742188 -10.910156 9.640625 -10.421875 C 10.546875 -9.941406 11.253906 -9.269531 11.765625 -8.40625 C 12.285156 -7.550781 12.546875 -6.582031 12.546875 -5.5 C 12.546875 -4.414062 12.285156 -3.441406 11.765625 -2.578125 C 11.253906 -1.722656 10.546875 -1.050781 9.640625 -0.5625 C 8.742188 -0.0820312 7.738281 0.15625 6.625 0.15625 Z M 6.625 -1.640625 C 7.351562 -1.640625 8.007812 -1.800781 8.59375 -2.125 C 9.1875 -2.457031 9.648438 -2.921875 9.984375 -3.515625 C 10.316406 -4.109375 10.484375 -4.769531 10.484375 -5.5 C 10.484375 -6.238281 10.316406 -6.898438 9.984375 -7.484375 C 9.648438 -8.078125 9.1875 -8.539062 8.59375 -8.875 C 8.007812 -9.207031 7.351562 -9.375 6.625 -9.375 C 5.882812 -9.375 5.21875 -9.207031 4.625 -8.875 C 4.039062 -8.539062 3.582031 -8.078125 3.25 -7.484375 C 2.914062 -6.898438 2.75 -6.238281 2.75 -5.5 C 2.75 -4.769531 2.914062 -4.109375 3.25 -3.515625 C 3.582031 -2.921875 4.039062 -2.457031 4.625 -2.125 C 5.21875 -1.800781 5.882812 -1.640625 6.625 -1.640625 Z M 6.625 -1.640625 "/></g></g></g><g fill="#484848" fill-opacity="1"><g transform="translate(156.431051, 275.643399)"><g><path d="M 11.578125 0 L 11.5625 -7.296875 L 7.953125 -1.25 L 7.046875 -1.25 L 3.421875 -7.203125 L 3.421875 0 L 1.484375 0 L 1.484375 -11 L 3.15625 -11 L 7.53125 -3.703125 L 11.828125 -11 L 13.5 -11 L 13.515625 0 Z M 11.578125 0 "/></g></g></g><g fill="#484848" fill-opacity="1"><g transform="translate(176.39062, 275.643399)"><g><path d="M 9.734375 -1.71875 L 9.734375 0 L 1.484375 0 L 1.484375 -11 L 9.515625 -11 L 9.515625 -9.296875 L 3.515625 -9.296875 L 3.515625 -6.421875 L 8.828125 -6.421875 L 8.828125 -4.75 L 3.515625 -4.75 L 3.515625 -1.71875 Z M 9.734375 -1.71875 "/></g></g></g><g fill="#484848" fill-opacity="1"><g transform="translate(191.872071, 275.643399)"><g/></g></g><g fill="#484848" fill-opacity="1"><g transform="translate(201.162706, 275.643399)"><g><path d="M 4.890625 0.15625 C 4.035156 0.15625 3.210938 0.0351562 2.421875 -0.203125 C 1.628906 -0.441406 1.003906 -0.757812 0.546875 -1.15625 L 1.25 -2.75 C 1.707031 -2.394531 2.257812 -2.101562 2.90625 -1.875 C 3.5625 -1.65625 4.222656 -1.546875 4.890625 -1.546875 C 5.703125 -1.546875 6.3125 -1.675781 6.71875 -1.9375 C 7.125 -2.195312 7.328125 -2.539062 7.328125 -2.96875 C 7.328125 -3.28125 7.210938 -3.539062 6.984375 -3.75 C 6.765625 -3.957031 6.476562 -4.117188 6.125 -4.234375 C 5.78125 -4.347656 5.3125 -4.476562 4.71875 -4.625 C 3.875 -4.820312 3.191406 -5.019531 2.671875 -5.21875 C 2.160156 -5.414062 1.71875 -5.726562 1.34375 -6.15625 C 0.96875 -6.582031 0.78125 -7.15625 0.78125 -7.875 C 0.78125 -8.476562 0.945312 -9.03125 1.28125 -9.53125 C 1.613281 -10.03125 2.109375 -10.425781 2.765625 -10.71875 C 3.429688 -11.007812 4.25 -11.15625 5.21875 -11.15625 C 5.882812 -11.15625 6.539062 -11.070312 7.1875 -10.90625 C 7.84375 -10.738281 8.40625 -10.5 8.875 -10.1875 L 8.234375 -8.59375 C 7.753906 -8.875 7.25 -9.085938 6.71875 -9.234375 C 6.195312 -9.390625 5.691406 -9.46875 5.203125 -9.46875 C 4.398438 -9.46875 3.800781 -9.328125 3.40625 -9.046875 C 3.007812 -8.773438 2.8125 -8.414062 2.8125 -7.96875 C 2.8125 -7.65625 2.921875 -7.398438 3.140625 -7.203125 C 3.367188 -7.003906 3.65625 -6.847656 4 -6.734375 C 4.351562 -6.617188 4.828125 -6.484375 5.421875 -6.328125 C 6.242188 -6.140625 6.914062 -5.941406 7.4375 -5.734375 C 7.957031 -5.535156 8.40625 -5.226562 8.78125 -4.8125 C 9.15625 -4.394531 9.34375 -3.828125 9.34375 -3.109375 C 9.34375 -2.503906 9.175781 -1.953125 8.84375 -1.453125 C 8.507812 -0.960938 8.003906 -0.570312 7.328125 -0.28125 C 6.660156 0.0078125 5.847656 0.15625 4.890625 0.15625 Z M 4.890625 0.15625 "/></g></g></g><g fill="#484848" fill-opacity="1"><g transform="translate(215.999931, 275.643399)"><g><path d="M 9.734375 -1.71875 L 9.734375 0 L 1.484375 0 L 1.484375 -11 L 9.515625 -11 L 9.515625 -9.296875 L 3.515625 -9.296875 L 3.515625 -6.421875 L 8.828125 -6.421875 L 8.828125 -4.75 L 3.515625 -4.75 L 3.515625 -1.71875 Z M 9.734375 -1.71875 "/></g></g></g><g fill="#484848" fill-opacity="1"><g transform="translate(231.481382, 275.643399)"><g><path d="M 8.671875 0 L 6.421875 -3.21875 C 6.328125 -3.207031 6.1875 -3.203125 6 -3.203125 L 3.515625 -3.203125 L 3.515625 0 L 1.484375 0 L 1.484375 -11 L 6 -11 C 6.957031 -11 7.789062 -10.84375 8.5 -10.53125 C 9.207031 -10.21875 9.75 -9.765625 10.125 -9.171875 C 10.5 -8.585938 10.6875 -7.894531 10.6875 -7.09375 C 10.6875 -6.257812 10.484375 -5.546875 10.078125 -4.953125 C 9.679688 -4.359375 9.101562 -3.910156 8.34375 -3.609375 L 10.875 0 Z M 8.625 -7.09375 C 8.625 -7.789062 8.394531 -8.328125 7.9375 -8.703125 C 7.476562 -9.085938 6.800781 -9.28125 5.90625 -9.28125 L 3.515625 -9.28125 L 3.515625 -4.890625 L 5.90625 -4.890625 C 6.800781 -4.890625 7.476562 -5.078125 7.9375 -5.453125 C 8.394531 -5.835938 8.625 -6.382812 8.625 -7.09375 Z M 8.625 -7.09375 "/></g></g></g><g fill="#484848" fill-opacity="1"><g transform="translate(247.921298, 275.643399)"><g><path d="M 11.53125 -11 L 6.75 0 L 4.734375 0 L -0.078125 -11 L 2.140625 -11 L 5.796875 -2.515625 L 9.5 -11 Z M 11.53125 -11 "/></g></g></g><g fill="#484848" fill-opacity="1"><g transform="translate(264.329806, 275.643399)"><g><path d="M 1.484375 -11 L 3.515625 -11 L 3.515625 0 L 1.484375 0 Z M 1.484375 -11 "/></g></g></g><g fill="#484848" fill-opacity="1"><g transform="translate(274.296101, 275.643399)"><g><path d="M 6.578125 0.15625 C 5.460938 0.15625 4.457031 -0.0820312 3.5625 -0.5625 C 2.664062 -1.050781 1.960938 -1.722656 1.453125 -2.578125 C 0.941406 -3.441406 0.6875 -4.414062 0.6875 -5.5 C 0.6875 -6.582031 0.941406 -7.550781 1.453125 -8.40625 C 1.972656 -9.269531 2.679688 -9.941406 3.578125 -10.421875 C 4.472656 -10.910156 5.476562 -11.15625 6.59375 -11.15625 C 7.488281 -11.15625 8.304688 -11 9.046875 -10.6875 C 9.796875 -10.375 10.425781 -9.921875 10.9375 -9.328125 L 9.625 -8.078125 C 8.820312 -8.941406 7.84375 -9.375 6.6875 -9.375 C 5.925781 -9.375 5.242188 -9.207031 4.640625 -8.875 C 4.046875 -8.539062 3.582031 -8.082031 3.25 -7.5 C 2.914062 -6.914062 2.75 -6.25 2.75 -5.5 C 2.75 -4.757812 2.914062 -4.09375 3.25 -3.5 C 3.582031 -2.914062 4.046875 -2.457031 4.640625 -2.125 C 5.242188 -1.800781 5.925781 -1.640625 6.6875 -1.640625 C 7.84375 -1.640625 8.820312 -2.070312 9.625 -2.9375 L 10.9375 -1.6875 C 10.425781 -1.082031 9.796875 -0.625 9.046875 -0.3125 C 8.296875 0 7.472656 0.15625 6.578125 0.15625 Z M 6.578125 0.15625 "/></g></g></g><g fill="#484848" fill-opacity="1"><g transform="translate(290.673189, 275.643399)"><g><path d="M 9.734375 -1.71875 L 9.734375 0 L 1.484375 0 L 1.484375 -11 L 9.515625 -11 L 9.515625 -9.296875 L 3.515625 -9.296875 L 3.515625 -6.421875 L 8.828125 -6.421875 L 8.828125 -4.75 L 3.515625 -4.75 L 3.515625 -1.71875 Z M 9.734375 -1.71875 "/></g></g></g><g fill="#484848" fill-opacity="1"><g transform="translate(306.15464, 275.643399)"><g><path d="M 4.890625 0.15625 C 4.035156 0.15625 3.210938 0.0351562 2.421875 -0.203125 C 1.628906 -0.441406 1.003906 -0.757812 0.546875 -1.15625 L 1.25 -2.75 C 1.707031 -2.394531 2.257812 -2.101562 2.90625 -1.875 C 3.5625 -1.65625 4.222656 -1.546875 4.890625 -1.546875 C 5.703125 -1.546875 6.3125 -1.675781 6.71875 -1.9375 C 7.125 -2.195312 7.328125 -2.539062 7.328125 -2.96875 C 7.328125 -3.28125 7.210938 -3.539062 6.984375 -3.75 C 6.765625 -3.957031 6.476562 -4.117188 6.125 -4.234375 C 5.78125 -4.347656 5.3125 -4.476562 4.71875 -4.625 C 3.875 -4.820312 3.191406 -5.019531 2.671875 -5.21875 C 2.160156 -5.414062 1.71875 -5.726562 1.34375 -6.15625 C 0.96875 -6.582031 0.78125 -7.15625 0.78125 -7.875 C 0.78125 -8.476562 0.945312 -9.03125 1.28125 -9.53125 C 1.613281 -10.03125 2.109375 -10.425781 2.765625 -10.71875 C 3.429688 -11.007812 4.25 -11.15625 5.21875 -11.15625 C 5.882812 -11.15625 6.539062 -11.070312 7.1875 -10.90625 C 7.84375 -10.738281 8.40625 -10.5 8.875 -10.1875 L 8.234375 -8.59375 C 7.753906 -8.875 7.25 -9.085938 6.71875 -9.234375 C 6.195312 -9.390625 5.691406 -9.46875 5.203125 -9.46875 C 4.398438 -9.46875 3.800781 -9.328125 3.40625 -9.046875 C 3.007812 -8.773438 2.8125 -8.414062 2.8125 -7.96875 C 2.8125 -7.65625 2.921875 -7.398438 3.140625 -7.203125 C 3.367188 -7.003906 3.65625 -6.847656 4 -6.734375 C 4.351562 -6.617188 4.828125 -6.484375 5.421875 -6.328125 C 6.242188 -6.140625 6.914062 -5.941406 7.4375 -5.734375 C 7.957031 -5.535156 8.40625 -5.226562 8.78125 -4.8125 C 9.15625 -4.394531 9.34375 -3.828125 9.34375 -3.109375 C 9.34375 -2.503906 9.175781 -1.953125 8.84375 -1.453125 C 8.507812 -0.960938 8.003906 -0.570312 7.328125 -0.28125 C 6.660156 0.0078125 5.847656 0.15625 4.890625 0.15625 Z M 4.890625 0.15625 "/></g></g></g></svg>
